# xmcd
#
# Track frame offsets:
#	150
#	16905
#	39254
#	57092
#	75312
#	94700
#	111807
#	132711
#	155214
#	173401
#	192444
#	209785
#
# Disc length: 3037 seconds
#
# Revision: 2
# Processed by: cddbd v1.5.2PL0 Copyright (c) Steve Scherf et al.
# Submitted via: audiograbber 1.83.01
#
DISCID=9c0bdb0c
DTITLE=Maire Ryham - Land Of Beauty
DYEAR=2009
DGENRE=Celtic
TTITLE0=Across The Moon
TTITLE1=The Wizard
TTITLE2=Wintertime In Avalon
TTITLE3=Paradise Is Real
TTITLE4=Ice And Snow
TTITLE5=Child Of Mist And Dew
TTITLE6=Lady Of The Lake
TTITLE7=Mystical Maid
TTITLE8=As I Lay Dreaming At Night
TTITLE9=The Goddess Walks
TTITLE10=Still Missing
TTITLE11=While You Sleep
EXTD=
EXTT0=
EXTT1=
EXTT2=
EXTT3=
EXTT4=
EXTT5=
EXTT6=
EXTT7=
EXTT8=
EXTT9=
EXTT10=
EXTT11=
PLAYORDER=
